<?xml version="1.0" standalone="no"?>
<!DOCTYPE svg PUBLIC "-//W3C//DTD SVG 20010904//EN"
 "http://www.w3.org/TR/2001/REC-SVG-20010904/DTD/svg10.dtd">
<svg version="1.0" xmlns="http://www.w3.org/2000/svg" viewBox="0 0 700 700"
 preserveAspectRatio="xMidYMid meet">
<g transform="translate(0.000000,700.000000) scale(0.100000,-0.100000)"
fill="#fff" stroke="none">
<path d="M3392 5800 c-472 -192 -2039 -1101 -2366 -1374 -81 -67 -126 -188
-126 -341 0 -162 45 -278 137 -356 239 -203 1340 -861 1988 -1188 286 -144
420 -202 473 -203 21 0 75 15 122 33 445 175 1984 1066 2338 1352 49 40 70 66
91 112 76 164 74 351 -5 507 -26 51 -93 109 -254 220 -508 350 -1826 1098
-2177 1236 -100 39 -128 40 -221 2z m-143 -599 c105 -54 1300 -726 1329 -747
52 -40 103 -96 124 -139 31 -59 35 -151 11 -206 -95 -212 -439 -391 -815 -424
-93 -8 -283 9 -397 36 -82 19 -201 65 -201 78 1 14 302 173 318 168 9 -4 42
-15 72 -26 68 -25 190 -28 275 -6 94 24 219 89 258 136 64 74 64 142 1 201
-23 21 -223 138 -236 138 -2 0 -2 -18 0 -40 5 -51 -33 -119 -91 -161 -121 -88
-282 -156 -436 -185 -137 -26 -362 -15 -511 24 -300 79 -557 238 -635 392 -40
78 -45 168 -15 238 43 100 178 199 345 252 54 17 103 24 214 28 l144 5 -61 34
c-34 19 -62 38 -62 41 0 7 309 180 323 181 4 1 25 -8 46 -18z"/>
<path d="M2980 4786 c-111 -32 -199 -87 -224 -141 -15 -30 -15 -42 -5 -72 34
-104 252 -243 444 -284 80 -17 227 -17 295 0 173 43 259 147 206 249 -44 84
-209 184 -395 238 -95 27 -242 32 -321 10z"/>
<path d="M946 3149 c-81 -187 -51 -446 64 -559 182 -178 1335 -869 2066 -1240
250 -127 375 -180 424 -180 190 0 2137 1105 2482 1409 71 63 110 163 116 302
5 118 -6 184 -44 271 l-26 57 -32 -31 c-219 -219 -1935 -1220 -2399 -1399 -99
-38 -119 -36 -260 27 -577 256 -2084 1137 -2321 1357 l-45 43 -25 -57z"/>
</g>
</svg>
