<svg xmlns="http://www.w3.org/2000/svg" xmlns:xlink="http://www.w3.org/1999/xlink" viewBox="0 0 24 24">
  <defs>
    <linearGradient id="e">
      <stop offset="0" stop-color="#02478c" stop-opacity=".19"/>
      <stop offset="1" stop-opacity="0"/>
    </linearGradient>
    <linearGradient id="d">
      <stop offset="0" stop-color="#f6f6e5" stop-opacity=".16"/>
      <stop offset="1" stop-color="#fff" stop-opacity="0"/>
    </linearGradient>
    <linearGradient id="c">
      <stop offset="0" stop-opacity=".25"/>
      <stop offset="1" stop-opacity="0"/>
    </linearGradient>
    <linearGradient id="b">
      <stop offset="0" stop-opacity=".25"/>
      <stop offset="1" stop-opacity="0"/>
    </linearGradient>
    <linearGradient id="a">
      <stop offset="0" stop-opacity=".31"/>
      <stop offset=".39" stop-opacity=".25"/>
      <stop offset="1" stop-opacity="0"/>
    </linearGradient>
    <linearGradient xlink:href="#a" id="h" x1="12.37" x2="14" y1="1037.57" y2="1037.57" gradientTransform="translate(0 2)" gradientUnits="userSpaceOnUse"/>
    <linearGradient xlink:href="#b" id="f" x1="15" x2="17" y1="1035.52" y2="1035.52" gradientTransform="translate(0 2)" gradientUnits="userSpaceOnUse"/>
    <linearGradient xlink:href="#c" id="g" x1="9.4" x2="7.82" y1="1034.36" y2="1034.36" gradientTransform="translate(0 2)" gradientUnits="userSpaceOnUse"/>
    <linearGradient xlink:href="#d" id="i" x1="7.79" x2="20.26" y1="9" y2="13.2" gradientUnits="userSpaceOnUse"/>
    <linearGradient xlink:href="#e" id="j" x1="19.85" x2="5.39" y1="13.65" y2="9.78" gradientUnits="userSpaceOnUse"/>
  </defs>
  <path fill="#fff" fill-opacity=".19" d="M12 3.95a4.88 4.88 0 0 0-.58.2c-.28.12-.64.29-1.04.5a71.54 71.54 0 0 0-6.62 3.92 4.75 4.75 0 0 0-.46.4c-.36.63-.36 1.4 0 2.03a2.05 2.05 0 0 0 0 2c-.36.63-.36 1.4 0 2.03a4.86 4.86 0 0 0 .46.4 71.35 71.35 0 0 0 7.66 4.43 4.58 4.58 0 0 0 .58.2c.06 0 .13-.03.23-.06l.35-.14a71.19 71.19 0 0 0 7.66-4.43 4.75 4.75 0 0 0 .46-.4c.36-.63.36-1.4 0-2.03.36-.62.36-1.38 0-2 .36-.63.36-1.4 0-2.02a4.86 4.86 0 0 0-.46-.4c-.24-.2-.57-.41-.96-.66a71.35 71.35 0 0 0-6.7-3.78 4.7 4.7 0 0 0-.58-.19z" color="#000" overflow="visible" style="isolation:auto;mix-blend-mode:normal;solid-color:#000;solid-opacity:1"/>
  <path fill="#bfbfbf" d="M20.66 1041.36c-.35.62-7.95 5-8.66 5s-8.3-4.38-8.66-5a2.01 2.01 0 0 1 0-2c.35-.61 7.95-5 8.66-5s8.3 4.39 8.66 5c.36.62.36 1.39 0 2z" color="#000" overflow="visible" style="isolation:auto;mix-blend-mode:normal;solid-color:#000;solid-opacity:1" transform="translate(0 -1028.36)"/>
  <path fill="#f0f0f0" d="M12 6v12c.71 0 8.3-4.39 8.66-5 .36-.61.36-1.39 0-2-.35-.61-7.95-5-8.66-5Z" color="#000" overflow="visible" style="isolation:auto;mix-blend-mode:normal;solid-color:#000;solid-opacity:1"/>
  <path fill="#0081ff" d="M20.66 1039.36c-.35.62-7.95 5-8.66 5s-8.3-4.38-8.66-5a2.01 2.01 0 0 1 0-2c.35-.61 7.95-5 8.66-5s8.3 4.39 8.66 5c.36.62.36 1.39 0 2z" color="#000" overflow="visible" style="isolation:auto;mix-blend-mode:normal;solid-color:#000;solid-opacity:1" transform="translate(0 -1028.36)"/>
  <path fill="#fff" d="M12.66 1045.85c-.35.62-.66.5-.66.5s-.3.12-.66-.5a2.01 2.01 0 0 1 0-2c.35-.61.66-.5.66-.5s.3-.11.66.5c.36.62.36 1.39 0 2z" color="#000" overflow="visible" style="isolation:auto;mix-blend-mode:normal;solid-color:#000;solid-opacity:1" transform="translate(0 -1028.36)"/>
  <path fill="#00468b" d="M12 1044.36c.71 0 8.3-4.38 8.66-5 .36-.61.36-1.38 0-2-.35.62-7.95 5-8.66 5v2z" color="#000" overflow="visible" style="isolation:auto;mix-blend-mode:normal;solid-color:#000;solid-opacity:1" transform="translate(0 -1028.36)"/>
  <path fill="#00468b" d="M12 1048.36c.71 0 8.3-4.38 8.66-5 .36-.61.36-1.38 0-2-.35.62-7.95 5-8.66 5v2z" color="#000" overflow="visible" style="isolation:auto;mix-blend-mode:normal;solid-color:#000;solid-opacity:1" transform="translate(0 -1028.36)"/>
  <path fill="#0069d0" d="M12 1044.36c-.71 0-8.3-4.38-8.66-5a2.01 2.01 0 0 1 0-2c.35.62 7.95 5 8.66 5 0 0 .5.5.5 1s-.5 1-.5 1z" color="#000" overflow="visible" style="isolation:auto;mix-blend-mode:normal;solid-color:#000;solid-opacity:1" transform="translate(0 -1028.36)"/>
  <path fill="#0069d0" d="M12 1048.36c-.71 0-8.3-4.38-8.66-5a2.01 2.01 0 0 1 0-2c.35.62 7.95 5 8.66 5 0 0 .5.5.5 1s-.5 1-.5 1z" color="#000" overflow="visible" style="isolation:auto;mix-blend-mode:normal;solid-color:#000;solid-opacity:1" transform="translate(0 -1028.36)"/>
  <path fill="#fff" d="M13.64 8.83c.01.08.04.16.04.25-.01.17-.13.33-.3.47a3.6 3.6 0 0 1-2 .7c-.39.02-.76-.02-1.11-.1a5.1 5.1 0 0 1-1-.33 3.4 3.4 0 0 1-1.07-.7 1.23 1.23 0 0 1-.38-.74c-.03-.3.1-.58.4-.84.17-.14.38-.26.63-.36.44-.17.93-.23 1.46-.17h.07l-.16-.08-.36-.2.03-.02L11 6.1l.1.05 4.3 2.4c.46.25.74.55.8.91.06.28-.05.55-.27.8-.2.24-.5.45-.86.63a4.43 4.43 0 0 1-3.49.22l-.24-.12-.03-.01.02-.02 1.02-.57h.05c.2.11.43.18.72.19.2 0 .4-.03.59-.09.42-.13.73-.32.88-.58.14-.24.09-.46-.21-.65-.23-.14-.48-.27-.72-.4l-.02-.02z"/>
  <path fill="#0081ff" d="M10.14 8.99c-.27-.14-.5-.3-.64-.5-.17-.22-.13-.44.13-.64a1.9 1.9 0 0 1 1.56-.27 3.56 3.56 0 0 1 1.27.6c.31.24.4.57.1.84-.27.25-.77.38-1.3.33a2.73 2.73 0 0 1-.94-.26l-.18-.1z"/>
  <path fill="url(#f)" fill-rule="evenodd" d="M11 1034.45v1.46l.2.03a4.14 4.14 0 0 1 1.26.6c.23.17.34.4.26.62v1.14c.25-.11.48-.23.66-.39.17-.14.29-.3.3-.47 0-.09-.03-.17-.04-.25l.02.01c.24.14.5.27.72.41.2.13.29.28.28.43v1.37c.14-.05.28-.1.4-.16.36-.19.66-.4.87-.64.22-.25.33-.52.28-.8-.07-.35-.35-.66-.8-.9l-4.31-2.4-.1-.06z" transform="translate(0 -1028.36)"/>
  <path fill="url(#g)" fill-rule="evenodd" d="M9.55 1035.37a2.8 2.8 0 0 0-1.33.53c-.3.26-.43.53-.4.84.02.26.16.5.38.73.26.28.64.5 1.07.7l.13.06v-1.66c.01-.12.08-.24.23-.36.18-.14.4-.25.7-.3h.05v-.53l-.07-.01a3.42 3.42 0 0 0-.76 0z" transform="translate(0 -1028.36)"/>
  <path fill="url(#h)" fill-rule="evenodd" d="M14 1038.72c-.1.04-.18.1-.29.13-.18.05-.38.08-.6.08a1.61 1.61 0 0 1-.71-.18l-.03-.02v.95c.43.07.88.08 1.35 0l.28-.07v-.9z" transform="translate(0 -1028.36)"/>
  <path fill="url(#i)" d="M12 4c-.71 0-8.3 4.39-8.66 5a2.01 2.01 0 0 0 0 2c.35.61 7.95 5 8.66 5s8.3-4.39 8.66-5c.36-.61.36-1.39 0-2-.35-.61-7.95-5-8.66-5zm-8.66 9a2.01 2.01 0 0 0 0 2c.35.61 7.95 5 8.66 5s8.3-4.39 8.66-5c.36-.61.36-1.39 0-2-.35.61-7.95 5-8.66 5s-8.3-4.39-8.66-5z" color="#000" overflow="visible" style="isolation:auto;mix-blend-mode:normal;solid-color:#000;solid-opacity:1"/>
  <path fill="url(#j)" d="M3.34 11a2.01 2.01 0 0 0 0 2c.35.61 7.95 5 8.66 5 .09 0 .28-.07.56-.19.83-.36 2.38-1.2 3.9-2.08 2.03-1.17 4.02-2.42 4.2-2.73.36-.61.36-1.39 0-2-.35.61-7.95 5-8.66 5s-8.3-4.39-8.66-5z" color="#000" overflow="visible" style="isolation:auto;mix-blend-mode:normal;solid-color:#000;solid-opacity:1"/>
  <path fill-opacity=".19" d="M12 1032.36c-.71 0-8.3 4.39-8.66 5a2.01 2.01 0 0 0 0 2 2.01 2.01 0 0 0 0 2 2.01 2.01 0 0 0 0 2c.35.62 7.95 5 8.66 5s8.3-4.38 8.66-5c.36-.61.36-1.38 0-2 .36-.61.36-1.38 0-2 .36-.61.36-1.38 0-2-.35-.61-7.95-5-8.66-5zm0 .05.2.05.34.14c.28.12.63.3 1.04.5a71.43 71.43 0 0 1 6.6 3.91 4.55 4.55 0 0 1 .44.38 2 2 0 0 1 0 1.95.05.05 0 0 0 0 .05 2 2 0 0 1 0 1.95.05.05 0 0 0 0 .05 2 2 0 0 1 0 1.95 4.7 4.7 0 0 1-.43.38c-.25.17-.57.4-.96.64a71.54 71.54 0 0 1-6.69 3.77 4.67 4.67 0 0 1-.54.18 4.63 4.63 0 0 1-.54-.19c-.28-.11-.63-.29-1.04-.5a71.43 71.43 0 0 1-6.6-3.9 4.55 4.55 0 0 1-.44-.38 1.96 1.96 0 0 1 0-1.95.05.05 0 0 0 0-.05 1.96 1.96 0 0 1 0-1.95.05.05 0 0 0 0-.05 1.96 1.96 0 0 1 0-1.95 4.69 4.69 0 0 1 .43-.38 71.54 71.54 0 0 1 7.64-4.41 4.67 4.67 0 0 1 .55-.19z" color="#000" font-family="sans-serif" font-weight="400" overflow="visible" style="line-height:normal;text-indent:0;text-align:start;text-decoration-line:none;text-decoration-style:solid;text-decoration-color:#000;text-transform:none;block-progression:tb;white-space:normal;isolation:auto;mix-blend-mode:normal;solid-color:#000;solid-opacity:1" transform="translate(0 -1028.36)"/>
</svg>
